<svg xmlns="http://www.w3.org/2000/svg" aria-hidden="true" style="position:absolute;width:0;height:0;overflow:hidden">
  <defs>
    <symbol id="icon-instagram-sketched-1" viewBox="0 0 31 32">
      <path d="M18.745 15.986a3.01 3.01 0 1 1-6.022 0 3.01 3.01 0 0 1 6.022 0z"/>
      <path d="M22.776 10.658a2.811 2.811 0 0 0-.676-1.039 2.795 2.795 0 0 0-1.039-.676c-.318-.124-.797-.271-1.677-.311-.953-.043-1.238-.053-3.651-.053s-2.698.009-3.651.053c-.881.04-1.359.188-1.677.311a2.795 2.795 0 0 0-1.039.676c-.3.291-.531.646-.676 1.039-.124.318-.271.797-.311 1.678-.043.953-.053 1.238-.053 3.651s.009 2.698.053 3.651c.04.881.187 1.359.311 1.677.145.393.376.747.676 1.039.291.3.646.531 1.039.676.318.124.797.271 1.678.311.953.043 1.238.053 3.65.053s2.698-.009 3.651-.053c.881-.04 1.359-.187 1.678-.311a2.993 2.993 0 0 0 1.715-1.715c.124-.318.271-.797.311-1.677.043-.953.053-1.238.053-3.651s-.009-2.698-.053-3.651c-.04-.881-.187-1.359-.311-1.678zm-7.043 9.967a4.64 4.64 0 1 1 0-9.278 4.64 4.64 0 0 1 0 9.278zm4.823-8.377a1.084 1.084 0 1 1 0-2.167 1.084 1.084 0 0 1 0 2.167z"/>
      <path d="M15.733.253C7.045.253 0 7.298 0 15.986s7.045 15.733 15.733 15.733 15.733-7.045 15.733-15.733S24.421.253 15.733.253zm8.98 19.458c-.044.962-.197 1.618-.42 2.193a4.617 4.617 0 0 1-2.642 2.642c-.575.223-1.231.376-2.193.42-.963.044-1.271.055-3.725.055s-2.761-.011-3.725-.055c-.962-.044-1.618-.197-2.193-.42a4.42 4.42 0 0 1-1.6-1.042 4.434 4.434 0 0 1-1.042-1.6c-.223-.574-.376-1.231-.42-2.193-.044-.964-.055-1.271-.055-3.725s.01-2.761.054-3.725c.044-.962.196-1.618.42-2.193a4.434 4.434 0 0 1 1.042-1.6 4.42 4.42 0 0 1 1.6-1.042c.575-.223 1.231-.376 2.193-.42.963-.044 1.271-.054 3.725-.054s2.761.011 3.725.055c.962.044 1.618.196 2.193.419a4.434 4.434 0 0 1 1.6 1.042c.46.451.815.997 1.042 1.6.224.575.376 1.231.42 2.193.044.963.054 1.271.054 3.725s-.01 2.761-.055 3.725z"/>
    </symbol>
    <symbol id="icon-facebook-1" viewBox="0 0 31 32">
      <path d="M31.448 15.986c0-8.685-7.039-15.724-15.724-15.724S0 7.301 0 15.986 7.039 31.71 15.724 31.71c.092 0 .184 0 .276-.006V19.469h-3.378v-3.937H16v-2.899c0-3.36 2.051-5.19 5.049-5.19 1.437 0 2.672.104 3.028.154v3.513h-2.064c-1.628 0-1.947.774-1.947 1.91v2.506h3.9l-.51 3.937h-3.39v11.64c6.572-1.886 11.382-7.936 11.382-15.116z"/>
    </symbol>
    <symbol id="icon-Group" viewBox="0 0 32 32">
      <path d="M31.794 10.966a.709.709 0 0 0-.592-.197h-8.489V7.018a6.712 6.712 0 1 0-13.424 0v3.751H.8c-.237 0-.474 0-.592.197a.67.67 0 0 0-.197.592l2.961 16.189a4.817 4.817 0 0 0 4.659 3.948h16.741a4.857 4.857 0 0 0 4.659-3.988l2.961-16.149a.668.668 0 0 0-.198-.592zM10.867 7.017a5.133 5.133 0 1 1 10.266 0v3.751H10.867V7.017zM27.451 27.51a3.159 3.159 0 0 1-3.08 2.606H7.63a3.159 3.159 0 0 1-3.08-2.606L1.747 12.348h28.508L27.452 27.51z"/>
      <path d="M21.922 20.047a.79.79 0 0 0 .79-.79v-2.369a.79.79 0 0 0-1.58 0v2.369c0 .436.354.79.79.79zm-11.844 0a.79.79 0 0 0 .79-.79v-2.369a.79.79 0 0 0-1.58 0v2.369c0 .436.354.79.79.79z"/>
    </symbol>

    <symbol id="icon-Group-1" viewBox="0 0 41 32">
    <path d="M37.527 0.331h-33.911c-1.991 0-3.616 1.623-3.616 3.616v24.105c0 1.989 1.618 3.616 3.616 3.616h33.911c1.986 0 3.616-1.616 3.616-3.616v-24.105c0-1.989-1.618-3.616-3.616-3.616zM37.029 2.741l-16.379 16.379-16.521-16.377h32.898zM2.411 27.554v-23.12l11.609 11.511-11.611 11.609zM4.114 29.259l11.618-11.618 4.069 4.037c0.218 0.216 0.518 0.35 0.849 0.35 0.334 0 0.636-0.136 0.854-0.355l3.97-3.968 11.554 11.552h-32.914zM38.731 27.554l-11.554-11.554 11.554-11.554v23.109z"></path>
    </symbol>
    <symbol id="icon-phone-outline-1-1" viewBox="0 0 32 32">
    <path d="M23.2 29.334c-11.335-0.014-20.52-9.199-20.534-20.533v-0.001c0-3.388 2.746-6.134 6.134-6.134v0c0.011-0 0.023-0 0.036-0 0.351 0 0.694 0.034 1.025 0.1l-0.033-0.006c0.362 0.054 0.686 0.138 0.995 0.25l-0.035-0.011c0.442 0.159 0.771 0.533 0.864 0.992l0.001 0.009 1.826 8c0.021 0.089 0.033 0.191 0.033 0.295 0 0.362-0.144 0.691-0.379 0.931l0-0c-0.173 0.187-0.187 0.202-1.827 1.054 1.341 2.893 3.607 5.168 6.412 6.485l0.081 0.034c0.867-1.654 0.881-1.667 1.068-1.839 0.24-0.235 0.569-0.38 0.932-0.38 0.104 0 0.206 0.012 0.303 0.035l-0.009-0.002 8 1.826c0.452 0.108 0.809 0.434 0.957 0.858l0.003 0.009c0.211 0.577 0.334 1.243 0.334 1.938 0 0.017-0 0.035-0 0.052l0-0.003c-0.053 3.347-2.779 6.040-6.133 6.040-0.019 0-0.037-0-0.056-0l0.003 0zM8.8 5.334c-1.912 0.007-3.46 1.554-3.468 3.465v0.001c0.008 9.865 8.003 17.859 17.867 17.866h0.001c1.911-0.008 3.458-1.555 3.466-3.465v-0.44l-6.186-1.427-0.387 0.733c-0.6 1.16-1.039 2.001-2.159 1.546-4.485-1.637-7.955-5.118-9.54-9.502l-0.035-0.11c-0.48-1.041 0.428-1.521 1.575-2.122l0.733-0.359-1.427-6.186h-0.44z"></path>
    </symbol>
    <symbol id="icon-user-1" viewBox="0 0 32 32">
    <path d="M15.771 15.414c2.118 0 3.952-0.76 5.45-2.258 1.499-1.499 2.258-3.331 2.258-5.45 0-2.117-0.758-3.952-2.256-5.45-1.501-1.498-3.334-2.258-5.453-2.258-2.117 0-3.952 0.76-5.45 2.258-1.498 1.499-2.258 3.331-2.258 5.45s0.76 3.952 2.258 5.45c1.499 1.498 3.333 2.258 5.45 2.258zM11.648 3.584c1.152-1.152 2.499-1.709 4.123-1.709 1.626 0 2.974 0.56 4.123 1.709 1.15 1.15 1.709 2.499 1.709 4.123 0 1.626-0.558 2.973-1.709 4.123-1.149 1.15-2.498 1.709-4.123 1.709-1.624 0-2.973-0.56-4.123-1.709s-1.709-2.498-1.709-4.123c0-1.624 0.56-2.973 1.709-4.123zM29.258 24.606c-0.043-0.624-0.13-1.304-0.259-2.022-0.141-0.796-0.313-1.48-0.527-2.145l0.031 0.113c-0.238-0.728-0.521-1.355-0.863-1.944l0.026 0.048c-0.355-0.629-0.773-1.169-1.259-1.642l-0.002-0.002c-0.507-0.477-1.108-0.862-1.772-1.123l-0.038-0.013c-0.668-0.265-1.442-0.419-2.252-0.419-0.020 0-0.041 0-0.061 0l0.003-0c-0.328 0-0.643 0.134-1.253 0.531-0.376 0.245-0.816 0.528-1.306 0.842-0.419 0.267-0.987 0.517-1.688 0.744-0.616 0.209-1.325 0.33-2.063 0.333h-0.001c-0.688 0-1.382-0.112-2.067-0.333-0.701-0.227-1.269-0.477-1.686-0.744-0.486-0.31-0.925-0.594-1.307-0.842-0.608-0.397-0.925-0.531-1.251-0.531-0.832 0-1.61 0.141-2.31 0.418-0.702 0.274-1.303 0.659-1.814 1.14l0.003-0.003c-0.475 0.456-0.899 1.008-1.259 1.643-0.349 0.611-0.629 1.248-0.837 1.896-0.2 0.624-0.368 1.309-0.496 2.032-0.128 0.718-0.216 1.398-0.259 2.022-0.043 0.611-0.064 1.248-0.064 1.891 0 1.67 0.53 3.022 1.578 4.019 1.034 0.984 2.402 1.483 4.067 1.483h15.408c1.664 0 3.032-0.499 4.066-1.483 1.048-0.997 1.579-2.349 1.579-4.021 0-0.645-0.022-1.28-0.064-1.89zM26.451 29.158c-0.683 0.65-1.59 0.966-2.773 0.966h-15.408c-1.184 0-2.091-0.317-2.774-0.966-0.67-0.638-0.995-1.509-0.995-2.661 0-0.6 0.019-1.192 0.059-1.76 0.038-0.558 0.117-1.171 0.234-1.822 0.115-0.642 0.262-1.245 0.437-1.792 0.194-0.592 0.425-1.101 0.703-1.58l-0.021 0.039c0.26-0.465 0.568-0.864 0.924-1.214l0.001-0.001c0.322-0.307 0.728-0.56 1.205-0.749 0.442-0.176 0.938-0.27 1.477-0.285 0.066 0.035 0.182 0.102 0.373 0.224 0.384 0.253 0.829 0.539 1.32 0.853 0.554 0.352 1.267 0.672 2.12 0.947 0.87 0.282 1.76 0.424 2.642 0.424s1.771-0.144 2.642-0.424c0.854-0.275 1.568-0.594 2.122-0.947 0.502-0.322 0.934-0.6 1.32-0.851 0.1-0.068 0.221-0.143 0.346-0.212l0.026-0.013c0.539 0.014 1.037 0.11 1.478 0.285 0.477 0.189 0.882 0.442 1.203 0.749 0.344 0.33 0.656 0.736 0.926 1.214 0.283 0.499 0.512 1.018 0.68 1.541 0.176 0.547 0.323 1.15 0.438 1.792 0.117 0.653 0.195 1.264 0.234 1.822 0.040 0.566 0.059 1.158 0.061 1.76 0 1.152-0.326 2.022-0.997 2.661z"></path>
    </symbol>
    <symbol id="icon-home-run-1" viewBox="0 0 32 32">
    <path d="M31.2 13.856l-13.056-13.056c-0.53-0.533-1.264-0.862-2.074-0.862-0.003 0-0.006 0-0.010 0h0c-0.786 0-1.525 0.306-2.082 0.862l-13.049 13.049c-0.535 0.534-0.866 1.272-0.866 2.087 0 1.613 1.294 2.923 2.901 2.949l0.002 0h0.523v9.607c0 1.9 1.547 3.447 3.449 3.447h5.106c0.517 0 0.937-0.419 0.937-0.937v0-7.536c0-0.868 0.706-1.573 1.573-1.573h3.013c0.868 0 1.572 0.706 1.572 1.573v7.531c0 0.519 0.42 0.939 0.939 0.939h5.106c1.902 0 3.449-1.547 3.449-3.449v-9.605h0.482c0.788 0 1.527-0.306 2.084-0.862 0.532-0.534 0.861-1.27 0.861-2.084s-0.328-1.548-0.86-2.082l0 0zM29.872 16.695c-0.193 0.193-0.459 0.313-0.754 0.313-0.001 0-0.002 0-0.004 0h-1.418c-0.001 0-0.001 0-0.002 0-0.517 0-0.937 0.419-0.937 0.937 0 0.001 0 0.001 0 0.002v-0 10.542c-0.001 0.869-0.705 1.572-1.573 1.573h-4.169v-6.594c0-1.902-1.547-3.449-3.449-3.449h-3.010c-1.902 0-3.449 1.547-3.449 3.449v6.596h-4.169c-0.869-0.001-1.573-0.706-1.573-1.575 0 0 0 0 0 0v0-10.542c0-0.001 0-0.001 0-0.002 0-0.517-0.419-0.937-0.937-0.937 0 0 0 0 0 0h-1.396c-0.008 0-0.017 0-0.027 0-0.295 0-0.563-0.12-0.755-0.315l-0-0c-0.193-0.194-0.312-0.461-0.312-0.756s0.119-0.563 0.312-0.756l13.056-13.054c0.193-0.196 0.461-0.317 0.757-0.317s0.564 0.121 0.757 0.317l13.054 13.056c0.192 0.194 0.311 0.461 0.311 0.756s-0.119 0.562-0.311 0.756l0-0z"></path>
    </symbol>

   

    <symbol id="icon-Vector-1" viewBox="0 0 31 32">
    <path fill="#fff" style="fill: var(--color1, #fff)" d="M30.185 23.233l-4.33-4.33c-1.547-1.547-4.176-0.928-4.794 1.083-0.464 1.392-2.011 2.165-3.402 1.856-3.093-0.773-7.269-4.794-8.042-8.042-0.464-1.392 0.464-2.939 1.856-3.402 2.010-0.619 2.629-3.248 1.083-4.794l-4.33-4.33c-1.237-1.083-3.093-1.083-4.176 0l-2.938 2.938c-2.938 3.093 0.309 11.29 7.578 18.559s15.466 10.671 18.559 7.578l2.938-2.938c1.083-1.237 1.083-3.093 0-4.176z"></path>
    </symbol>
  </defs>
</svg>
